<svg xmlns:xlink="http://www.w3.org/1999/xlink" height="804" xmlns="http://www.w3.org/2000/svg" viewBox="0 0 1132 804" width="1132" xmlns:ev="http://www.w3.org/2001/xml-events"><style type="text/css"><![CDATA[
.st2 {fill:#446c70;font-family:Times New Roman;font-size:6.75pt}
.st1 {fill:#446c70;font-family:Times New Roman;font-size:7.5pt}
]]></style><defs/><g transform="translate(5,5)" id="page1"><rect y="0" x="0" height="794" fill="#ffffff" width="1123" stroke="#808080"/><g transform="translate(217.09,43.09)"><path fill="#0168a5" id="shape1" stroke="#0168a5" d="M39.9,49.3L39.9,57.7L56.3,57.7C58.3,57.7,59.9,59.3,59.9,61.3L10,61.7C10,59.3,11.7,57.7,13.7,57.7L30,57.7L30,49.3L2.8,49.3C1.3,49.3,0,48.1,0,46.5L0,2.8C0,1.3,1.3,0,2.8,0L67.1,0C68.6,0,69.9,1.3,69.9,2.8L69.9,46.5C69.9,48.1,68.6,49.3,67.1,49.3L39.9,49.3z"/><path fill="#ffffff" transform="translate(2.1,2.09)" id="shape2" stroke="#ffffff" d="M0,0L65.7,0L65.7,41.6L0,41.6L0,0z"/><path fill="#ffffff" transform="translate(33.16,44.72)" id="shape3" stroke="#ffffff" d="M0,1.8C0,.8,.8,0,1.8,0C2.8,0,3.6,.8,3.6,1.8C3.6,2.8,2.8,3.6,1.8,3.6C.8,3.6,0,2.8,0,1.8zM.6,1.8C.6,2.5,1.1,3,1.8,3C2.5,3,3,2.5,3,1.8C3,1.1,2.5,.6,1.8,.6C1.1,.6,.6,1.1,.6,1.8z"/></g><g transform="translate(212.9,100.66)" id="shape4"><text class="st1"><tspan y="18.7" x="20.2">Customer</tspan></text></g><g transform="translate(217.09,222.3)"><path fill="#0168a5" id="shape5" stroke="#0168a5" d="M39.9,49.3L39.9,57.7L56.3,57.7C58.3,57.7,59.9,59.3,59.9,61.3L10,61.7C10,59.3,11.7,57.7,13.7,57.7L30,57.7L30,49.3L2.8,49.3C1.3,49.3,0,48.1,0,46.5L0,2.8C0,1.3,1.3,0,2.8,0L67.1,0C68.6,0,69.9,1.3,69.9,2.8L69.9,46.5C69.9,48.1,68.6,49.3,67.1,49.3L39.9,49.3z"/><path fill="#ffffff" transform="translate(2.1,2.09)" id="shape6" stroke="#ffffff" d="M0,0L65.7,0L65.7,41.6L0,41.6L0,0z"/><path fill="#ffffff" transform="translate(33.16,44.72)" id="shape7" stroke="#ffffff" d="M0,1.8C0,.8,.8,0,1.8,0C2.8,0,3.6,.8,3.6,1.8C3.6,2.8,2.8,3.6,1.8,3.6C.8,3.6,0,2.8,0,1.8zM.6,1.8C.6,2.5,1.1,3,1.8,3C2.5,3,3,2.5,3,1.8C3,1.1,2.5,.6,1.8,.6C1.1,.6,.6,1.1,.6,1.8z"/></g><g transform="translate(212.9,279.87)" id="shape8"><text class="st1"><tspan y="18.7" x="20.2">Customer</tspan></text></g><g transform="translate(217.09,312.5)"><path fill="#0168a5" id="shape9" stroke="#0168a5" d="M39.9,49.3L39.9,57.7L56.3,57.7C58.3,57.7,59.9,59.3,59.9,61.3L10,61.7C10,59.3,11.7,57.7,13.7,57.7L30,57.7L30,49.3L2.8,49.3C1.3,49.3,0,48.1,0,46.5L0,2.8C0,1.3,1.3,0,2.8,0L67.1,0C68.6,0,69.9,1.3,69.9,2.8L69.9,46.5C69.9,48.1,68.6,49.3,67.1,49.3L39.9,49.3z"/><path fill="#ffffff" transform="translate(2.1,2.09)" id="shape10" stroke="#ffffff" d="M0,0L65.7,0L65.7,41.6L0,41.6L0,0z"/><path fill="#ffffff" transform="translate(33.16,44.72)" id="shape11" stroke="#ffffff" d="M0,1.8C0,.8,.8,0,1.8,0C2.8,0,3.6,.8,3.6,1.8C3.6,2.8,2.8,3.6,1.8,3.6C.8,3.6,0,2.8,0,1.8zM.6,1.8C.6,2.5,1.1,3,1.8,3C2.5,3,3,2.5,3,1.8C3,1.1,2.5,.6,1.8,.6C1.1,.6,.6,1.1,.6,1.8z"/></g><g transform="translate(212.9,370.07)" id="shape12"><text class="st1"><tspan y="18.7" x="20.2">Customer</tspan></text></g><g transform="translate(216.54,130.92)"><path fill="#0168a5" id="shape13" stroke="#0168a5" d="M39.9,49.3L39.9,57.7L56.3,57.7C58.3,57.7,59.9,59.3,59.9,61.3L10,61.7C10,59.3,11.7,57.7,13.7,57.7L30,57.7L30,49.3L2.8,49.3C1.3,49.3,0,48.1,0,46.5L0,2.8C0,1.3,1.3,0,2.8,0L67.1,0C68.6,0,69.9,1.3,69.9,2.8L69.9,46.5C69.9,48.1,68.6,49.3,67.1,49.3L39.9,49.3z"/><path fill="#ffffff" transform="translate(2.1,2.09)" id="shape14" stroke="#ffffff" d="M0,0L65.7,0L65.7,41.6L0,41.6L0,0z"/><path fill="#ffffff" transform="translate(33.16,44.72)" id="shape15" stroke="#ffffff" d="M0,1.8C0,.8,.8,0,1.8,0C2.8,0,3.6,.8,3.6,1.8C3.6,2.8,2.8,3.6,1.8,3.6C.8,3.6,0,2.8,0,1.8zM.6,1.8C.6,2.5,1.1,3,1.8,3C2.5,3,3,2.5,3,1.8C3,1.1,2.5,.6,1.8,.6C1.1,.6,.6,1.1,.6,1.8z"/></g><g transform="translate(212.34,188.49)" id="shape16"><text class="st1"><tspan y="18.7" x="20.2">Customer</tspan></text></g><g transform="translate(217.64,401.51)"><path fill="#0168a5" id="shape17" stroke="#0168a5" d="M39.9,49.3L39.9,57.7L56.3,57.7C58.3,57.7,59.9,59.3,59.9,61.3L10,61.7C10,59.3,11.7,57.7,13.7,57.7L30,57.7L30,49.3L2.8,49.3C1.3,49.3,0,48.1,0,46.5L0,2.8C0,1.3,1.3,0,2.8,0L67.1,0C68.6,0,69.9,1.3,69.9,2.8L69.9,46.5C69.9,48.1,68.6,49.3,67.1,49.3L39.9,49.3z"/><path fill="#ffffff" transform="translate(2.1,2.09)" id="shape18" stroke="#ffffff" d="M0,0L65.7,0L65.7,41.6L0,41.6L0,0z"/><path fill="#ffffff" transform="translate(33.16,44.72)" id="shape19" stroke="#ffffff" d="M0,1.8C0,.8,.8,0,1.8,0C2.8,0,3.6,.8,3.6,1.8C3.6,2.8,2.8,3.6,1.8,3.6C.8,3.6,0,2.8,0,1.8zM.6,1.8C.6,2.5,1.1,3,1.8,3C2.5,3,3,2.5,3,1.8C3,1.1,2.5,.6,1.8,.6C1.1,.6,.6,1.1,.6,1.8z"/></g><g transform="translate(213.45,459.08)" id="shape20"><text class="st1"><tspan y="18.7" x="20.2">Customer</tspan></text></g><g transform="translate(217.64,580.72)"><path fill="#0168a5" id="shape21" stroke="#0168a5" d="M39.9,49.3L39.9,57.7L56.3,57.7C58.3,57.7,59.9,59.3,59.9,61.3L10,61.7C10,59.3,11.7,57.7,13.7,57.7L30,57.7L30,49.3L2.8,49.3C1.3,49.3,0,48.1,0,46.5L0,2.8C0,1.3,1.3,0,2.8,0L67.1,0C68.6,0,69.9,1.3,69.9,2.8L69.9,46.5C69.9,48.1,68.6,49.3,67.1,49.3L39.9,49.3z"/><path fill="#ffffff" transform="translate(2.1,2.09)" id="shape22" stroke="#ffffff" d="M0,0L65.7,0L65.7,41.6L0,41.6L0,0z"/><path fill="#ffffff" transform="translate(33.16,44.72)" id="shape23" stroke="#ffffff" d="M0,1.8C0,.8,.8,0,1.8,0C2.8,0,3.6,.8,3.6,1.8C3.6,2.8,2.8,3.6,1.8,3.6C.8,3.6,0,2.8,0,1.8zM.6,1.8C.6,2.5,1.1,3,1.8,3C2.5,3,3,2.5,3,1.8C3,1.1,2.5,.6,1.8,.6C1.1,.6,.6,1.1,.6,1.8z"/></g><g transform="translate(213.45,638.29)" id="shape24"><text class="st1"><tspan y="18.7" x="20.2">Customer</tspan></text></g><g transform="translate(217.64,670.92)"><path fill="#0168a5" id="shape25" stroke="#0168a5" d="M39.9,49.3L39.9,57.7L56.3,57.7C58.3,57.7,59.9,59.3,59.9,61.3L10,61.7C10,59.3,11.7,57.7,13.7,57.7L30,57.7L30,49.3L2.8,49.3C1.3,49.3,0,48.1,0,46.5L0,2.8C0,1.3,1.3,0,2.8,0L67.1,0C68.6,0,69.9,1.3,69.9,2.8L69.9,46.5C69.9,48.1,68.6,49.3,67.1,49.3L39.9,49.3z"/><path fill="#ffffff" transform="translate(2.1,2.09)" id="shape26" stroke="#ffffff" d="M0,0L65.7,0L65.7,41.6L0,41.6L0,0z"/><path fill="#ffffff" transform="translate(33.16,44.72)" id="shape27" stroke="#ffffff" d="M0,1.8C0,.8,.8,0,1.8,0C2.8,0,3.6,.8,3.6,1.8C3.6,2.8,2.8,3.6,1.8,3.6C.8,3.6,0,2.8,0,1.8zM.6,1.8C.6,2.5,1.1,3,1.8,3C2.5,3,3,2.5,3,1.8C3,1.1,2.5,.6,1.8,.6C1.1,.6,.6,1.1,.6,1.8z"/></g><g transform="translate(213.45,728.48)" id="shape28"><text class="st1"><tspan y="18.7" x="20.2">Customer</tspan></text></g><g transform="translate(217.09,489.33)"><path fill="#0168a5" id="shape29" stroke="#0168a5" d="M39.9,49.3L39.9,57.7L56.3,57.7C58.3,57.7,59.9,59.3,59.9,61.3L10,61.7C10,59.3,11.7,57.7,13.7,57.7L30,57.7L30,49.3L2.8,49.3C1.3,49.3,0,48.1,0,46.5L0,2.8C0,1.3,1.3,0,2.8,0L67.1,0C68.6,0,69.9,1.3,69.9,2.8L69.9,46.5C69.9,48.1,68.6,49.3,67.1,49.3L39.9,49.3z"/><path fill="#ffffff" transform="translate(2.1,2.09)" id="shape30" stroke="#ffffff" d="M0,0L65.7,0L65.7,41.6L0,41.6L0,0z"/><path fill="#ffffff" transform="translate(33.16,44.72)" id="shape31" stroke="#ffffff" d="M0,1.8C0,.8,.8,0,1.8,0C2.8,0,3.6,.8,3.6,1.8C3.6,2.8,2.8,3.6,1.8,3.6C.8,3.6,0,2.8,0,1.8zM.6,1.8C.6,2.5,1.1,3,1.8,3C2.5,3,3,2.5,3,1.8C3,1.1,2.5,.6,1.8,.6C1.1,.6,.6,1.1,.6,1.8z"/></g><g transform="translate(212.9,546.9)" id="shape32"><text class="st1"><tspan y="18.7" x="20.2">Customer</tspan></text></g><g transform="translate(530.41,87)"><path fill="#00188f" transform="translate(46.29,0)" id="shape33" d="M29.9,0L3.3,0C1.5,0,0,1.5,0,3.4L0,68.8L33.2,68.8L33.2,3.4C33.2,1.5,31.7,0,29.9,0zM28.2,62.1L5,62.1L5,58.8L28.2,58.8L28.2,62.1zM28.2,55.4L5,55.4L5,52L28.2,52L28.2,55.4zM28.2,13.4L5,13.4L5,10.1L28.2,10.1L28.2,13.4z"/><g transform="translate(0,64.09)" id="shape34"><text class="st2"><tspan y="13.8" x="26.4">Proxy / Edge Server</tspan></text></g></g><g transform="translate(530.41,177.2)"><path fill="#00188f" transform="translate(46.29,0)" id="shape35" d="M29.9,0L3.3,0C1.5,0,0,1.5,0,3.4L0,68.8L33.2,68.8L33.2,3.4C33.2,1.5,31.7,0,29.9,0zM28.2,62.1L5,62.1L5,58.8L28.2,58.8L28.2,62.1zM28.2,55.4L5,55.4L5,52L28.2,52L28.2,55.4zM28.2,13.4L5,13.4L5,10.1L28.2,10.1L28.2,13.4z"/><g transform="translate(0,64.09)" id="shape36"><text class="st2"><tspan y="13.8" x="26.4">Proxy / Edge Server</tspan></text></g></g><g transform="translate(530.41,267.4)"><path fill="#00188f" transform="translate(46.29,0)" id="shape37" d="M29.9,0L3.3,0C1.5,0,0,1.5,0,3.4L0,68.8L33.2,68.8L33.2,3.4C33.2,1.5,31.7,0,29.9,0zM28.2,62.1L5,62.1L5,58.8L28.2,58.8L28.2,62.1zM28.2,55.4L5,55.4L5,52L28.2,52L28.2,55.4zM28.2,13.4L5,13.4L5,10.1L28.2,10.1L28.2,13.4z"/><g transform="translate(0,64.09)" id="shape38"><text class="st2"><tspan y="13.8" x="26.4">Proxy / Edge Server</tspan></text></g></g><g transform="translate(530.41,356.41)"><path fill="#00188f" transform="translate(46.29,0)" id="shape39" d="M29.9,0L3.3,0C1.5,0,0,1.5,0,3.4L0,68.8L33.2,68.8L33.2,3.4C33.2,1.5,31.7,0,29.9,0zM28.2,62.1L5,62.1L5,58.8L28.2,58.8L28.2,62.1zM28.2,55.4L5,55.4L5,52L28.2,52L28.2,55.4zM28.2,13.4L5,13.4L5,10.1L28.2,10.1L28.2,13.4z"/><g transform="translate(0,64.09)" id="shape40"><text class="st2"><tspan y="13.8" x="26.4">Proxy / Edge Server</tspan></text></g></g><g transform="translate(530.41,446.61)"><path fill="#00188f" transform="translate(46.29,0)" id="shape41" d="M29.9,0L3.3,0C1.5,0,0,1.5,0,3.4L0,68.8L33.2,68.8L33.2,3.4C33.2,1.5,31.7,0,29.9,0zM28.2,62.1L5,62.1L5,58.8L28.2,58.8L28.2,62.1zM28.2,55.4L5,55.4L5,52L28.2,52L28.2,55.4zM28.2,13.4L5,13.4L5,10.1L28.2,10.1L28.2,13.4z"/><g transform="translate(0,64.09)" id="shape42"><text class="st2"><tspan y="13.8" x="26.4">Proxy / Edge Server</tspan></text></g></g><g transform="translate(530.41,536.81)"><path fill="#00188f" transform="translate(46.29,0)" id="shape43" d="M29.9,0L3.3,0C1.5,0,0,1.5,0,3.4L0,68.8L33.2,68.8L33.2,3.4C33.2,1.5,31.7,0,29.9,0zM28.2,62.1L5,62.1L5,58.8L28.2,58.8L28.2,62.1zM28.2,55.4L5,55.4L5,52L28.2,52L28.2,55.4zM28.2,13.4L5,13.4L5,10.1L28.2,10.1L28.2,13.4z"/><g transform="translate(0,64.09)" id="shape44"><text class="st2"><tspan y="13.8" x="26.4">Proxy / Edge Server</tspan></text></g></g><g transform="translate(530.41,625.82)"><path fill="#00188f" transform="translate(46.29,0)" id="shape45" d="M29.9,0L3.3,0C1.5,0,0,1.5,0,3.4L0,68.8L33.2,68.8L33.2,3.4C33.2,1.5,31.7,0,29.9,0zM28.2,62.1L5,62.1L5,58.8L28.2,58.8L28.2,62.1zM28.2,55.4L5,55.4L5,52L28.2,52L28.2,55.4zM28.2,13.4L5,13.4L5,10.1L28.2,10.1L28.2,13.4z"/><g transform="translate(0,64.09)" id="shape46"><text class="st2"><tspan y="13.8" x="26.4">Proxy / Edge Server</tspan></text></g></g><g transform="translate(417.66,356.41)"><path fill="#00188f" transform="translate(23.74,0)" id="shape47" d="M29.9,0L3.3,0C1.5,0,0,1.5,0,3.4L0,68.8L33.2,68.8L33.2,3.4C33.2,1.5,31.7,0,29.9,0zM28.2,62.1L5,62.1L5,58.8L28.2,58.8L28.2,62.1zM28.2,55.4L5,55.4L5,52L28.2,52L28.2,55.4zM28.2,13.4L5,13.4L5,10.1L28.2,10.1L28.2,13.4z"/><g transform="translate(0,66.46)" id="shape48"><text class="st1"><tspan y="11.9" x="19.4">Controller</tspan></text></g></g><g transform="translate(729.79,356.41)"><g transform="translate(23.91,0)"><path fill="#f0667d" id="shape49" stroke="#f0667d" d="M1.7,0L36,0C36.9,0,37.6,.9,37.6,2L37.6,69.1C37.6,70.2,36.9,71.1,36,71.1L1.7,71.1C.7,71.1,0,70.2,0,69.1L0,2C0,.9,.7,0,1.7,0z"/><g transform="translate(0.01,10.75)"><path fill="#fed372" transform="translate(0,-0)" id="shape50" stroke="#fed372" d="M0,0L37.5,0L37.5,2.3L0,2.3L0,0z"/><path fill="#fed372" transform="translate(0,6.96)" id="shape51" stroke="#fed372" d="M0,0L37.5,0L37.5,2.3L0,2.3L0,0z"/><path fill="#fed372" transform="translate(0,14.04)" id="shape52" stroke="#fed372" d="M0,0L37.5,0L37.5,2.3L0,2.3L0,0z"/><path fill="#fed372" transform="translate(0,21.58)" id="shape53" stroke="#fed372" d="M0,0L37.5,0L37.5,2.3L0,2.3L0,0z"/><path fill="#fed372" transform="translate(0,29.41)" id="shape54" stroke="#fed372" d="M0,0L37.5,0L37.5,2.3L0,2.3L0,0z"/></g><g transform="translate(20.23,11.25)"><path fill="#ffffff" transform="translate(0,-0)" id="shape55" stroke="#ffffff" d="M0,0L16.8,0L16.8,1.3L0,1.3L0,0z"/><path fill="#ffffff" transform="translate(0,6.96)" id="shape56" stroke="#ffffff" d="M0,0L16.8,0L16.8,1.3L0,1.3L0,0z"/><path fill="#ffffff" transform="translate(0,14.04)" id="shape57" stroke="#ffffff" d="M0,0L16.8,0L16.8,1.3L0,1.3L0,0z"/><path fill="#ffffff" transform="translate(0,21.58)" id="shape58" stroke="#ffffff" d="M0,0L16.8,0L16.8,1.3L0,1.3L0,0z"/><path fill="#ffffff" transform="translate(0,29.41)" id="shape59" stroke="#ffffff" d="M0,0L16.8,0L16.8,1.3L0,1.3L0,0z"/></g></g><g transform="translate(0,59.93)" id="shape60"><text class="st1"><tspan y="21.4" x="18.2">Main Server</tspan></text></g></g><g transform="translate(914.34,342.41)"><g transform="translate(20.77,0)"><path fill="#00a2ff" id="shape61" stroke="#00a2ff" d="M6.8,0L50.1,0C53.9,0,57,3,57,6.6L57,90.7C57,94.4,53.9,97.3,50.1,97.3L6.8,97.3C3.1,97.3,0,94.4,0,90.7L0,6.6C0,3,3.1,0,6.8,0z"/><path fill="#ffffff" transform="translate(9.5,10.99)" id="shape62" stroke="#ffffff" d="M2.8,0L35.1,0C36.7,0,38,1.2,38,2.7C38,4.2,36.7,5.5,35.1,5.5L2.8,5.5C1.3,5.5,0,4.2,0,2.7C0,1.2,1.3,0,2.8,0z" stroke-width="0.333333"/><path fill="#ffffff" transform="translate(9.5,25.32)" id="shape63" stroke="#ffffff" d="M2.8,0L35.1,0C36.7,0,38,1.2,38,2.7C38,4.2,36.7,5.5,35.1,5.5L2.8,5.5C1.3,5.5,0,4.2,0,2.7C0,1.2,1.3,0,2.8,0z" stroke-width="0.333333"/><path fill="#ffffff" transform="translate(9.5,39.66)" id="shape64" stroke="#ffffff" d="M2.8,0L35.1,0C36.7,0,38,1.2,38,2.7C38,4.2,36.7,5.5,35.1,5.5L2.8,5.5C1.3,5.5,0,4.2,0,2.7C0,1.2,1.3,0,2.8,0z" stroke-width="0.333333"/><path fill="#ffffff" transform="translate(22.08,78.26)" id="shape65" stroke="#ffffff" d="M6.4,6.2C5.9,6.2,5.5,5.8,5.5,5.3L5.5,.9C5.5,.4,5.9,0,6.4,0C6.9,0,7.3,.4,7.3,.9L7.3,5.3C7.3,5.8,6.9,6.2,6.4,6.2zM9.9,1C9.8,.9,9.6,.9,9.4,.9C8.9,.9,8.5,1.3,8.5,1.8C8.5,1.9,8.6,2.1,8.7,2.2C8.7,2.3,8.8,2.4,8.9,2.5C8.9,2.5,8.9,2.5,9,2.5C9.2,2.7,9.4,2.9,9.6,3.1C10.5,3.9,11,5,11,6.2C11,7.4,10.5,8.5,9.6,9.3C8.8,10.2,7.6,10.6,6.4,10.6C5.2,10.6,4,10.2,3.2,9.3C2.3,8.5,1.8,7.4,1.8,6.2C1.8,5,2.3,3.9,3.2,3.1C3.4,2.9,3.6,2.7,3.8,2.5C3.9,2.5,3.9,2.5,3.9,2.5C4,2.4,4.1,2.3,4.2,2.2C4.2,2.1,4.3,1.9,4.3,1.8C4.3,1.3,3.9,.9,3.4,.9C3.2,.9,3,.9,2.9,1C1.1,2.1,0,4,0,6.2C0,9.6,2.9,12.4,6.4,12.4C9.9,12.4,12.8,9.6,12.8,6.2C12.8,4,11.7,2.1,9.9,1z" stroke-width="0.333333"/><path fill="#ffffff" transform="translate(9.5,51.54)" id="shape66" stroke="#ffffff" d="M1.2,0L14.5,0C15.1,0,15.7,1.2,15.7,2.7C15.7,4.2,15.1,5.5,14.5,5.5L1.2,5.5C.5,5.5,0,4.2,0,2.7C0,1.2,.5,0,1.2,0z" stroke-width="0.333333"/><path fill="#ffffff" transform="translate(31.8,51.54)" id="shape67" stroke="#ffffff" d="M1.2,0L14.5,0C15.1,0,15.7,1.2,15.7,2.7C15.7,4.2,15.1,5.5,14.5,5.5L1.2,5.5C.5,5.5,0,4.2,0,2.7C0,1.2,.5,0,1.2,0z" stroke-width="0.333333"/><path fill="#ffffff" transform="translate(9.5,62.97)" id="shape68" stroke="#ffffff" d="M1.2,0L14.5,0C15.1,0,15.7,1.2,15.7,2.7C15.7,4.2,15.1,5.5,14.5,5.5L1.2,5.5C.5,5.5,0,4.2,0,2.7C0,1.2,.5,0,1.2,0z" stroke-width="0.333333"/><path fill="#ffffff" transform="translate(31.8,62.97)" id="shape69" stroke="#ffffff" d="M1.2,0L14.5,0C15.1,0,15.7,1.2,15.7,2.7C15.7,4.2,15.1,5.5,14.5,5.5L1.2,5.5C.5,5.5,0,4.2,0,2.7C0,1.2,.5,0,1.2,0z" stroke-width="0.333333"/></g><g transform="translate(0,103.02)" id="shape70"><text class="st1"><tspan y="5.9" x="7.3">App / Load Balancer </tspan><tspan y="17.9" x="36.3">Server</tspan></text></g></g><g transform="translate(914.34,177.2)"><g transform="translate(20.77,0)"><path fill="#00a2ff" id="shape71" stroke="#00a2ff" d="M6.8,0L50.1,0C53.9,0,57,3,57,6.6L57,90.7C57,94.4,53.9,97.3,50.1,97.3L6.8,97.3C3.1,97.3,0,94.4,0,90.7L0,6.6C0,3,3.1,0,6.8,0z"/><path fill="#ffffff" transform="translate(9.5,10.99)" id="shape72" stroke="#ffffff" d="M2.8,0L35.1,0C36.7,0,38,1.2,38,2.7C38,4.2,36.7,5.5,35.1,5.5L2.8,5.5C1.3,5.5,0,4.2,0,2.7C0,1.2,1.3,0,2.8,0z" stroke-width="0.333333"/><path fill="#ffffff" transform="translate(9.5,25.33)" id="shape73" stroke="#ffffff" d="M2.8,0L35.1,0C36.7,0,38,1.2,38,2.7C38,4.2,36.7,5.5,35.1,5.5L2.8,5.5C1.3,5.5,0,4.2,0,2.7C0,1.2,1.3,0,2.8,0z" stroke-width="0.333333"/><path fill="#ffffff" transform="translate(9.5,39.66)" id="shape74" stroke="#ffffff" d="M2.8,0L35.1,0C36.7,0,38,1.2,38,2.7C38,4.2,36.7,5.5,35.1,5.5L2.8,5.5C1.3,5.5,0,4.2,0,2.7C0,1.2,1.3,0,2.8,0z" stroke-width="0.333333"/><path fill="#ffffff" transform="translate(22.08,78.27)" id="shape75" stroke="#ffffff" d="M6.4,6.2C5.9,6.2,5.5,5.8,5.5,5.3L5.5,.9C5.5,.4,5.9,0,6.4,0C6.9,0,7.3,.4,7.3,.9L7.3,5.3C7.3,5.8,6.9,6.2,6.4,6.2zM9.9,1C9.8,.9,9.6,.9,9.4,.9C8.9,.9,8.5,1.3,8.5,1.8C8.5,1.9,8.6,2.1,8.7,2.2C8.7,2.3,8.8,2.4,8.9,2.5C8.9,2.5,8.9,2.5,9,2.5C9.2,2.7,9.4,2.9,9.6,3.1C10.5,3.9,11,5,11,6.2C11,7.4,10.5,8.5,9.6,9.3C8.8,10.2,7.6,10.6,6.4,10.6C5.2,10.6,4,10.2,3.2,9.3C2.3,8.5,1.8,7.4,1.8,6.2C1.8,5,2.3,3.9,3.2,3.1C3.4,2.9,3.6,2.7,3.8,2.5C3.9,2.5,3.9,2.5,3.9,2.5C4,2.4,4.1,2.3,4.2,2.2C4.2,2.1,4.3,1.9,4.3,1.8C4.3,1.3,3.9,.9,3.4,.9C3.2,.9,3,.9,2.9,1C1.1,2.1,0,4,0,6.2C0,9.6,2.9,12.4,6.4,12.4C9.9,12.4,12.8,9.6,12.8,6.2C12.8,4,11.7,2.1,9.9,1z" stroke-width="0.333333"/><path fill="#ffffff" transform="translate(9.5,51.55)" id="shape76" stroke="#ffffff" d="M1.2,0L14.5,0C15.1,0,15.7,1.2,15.7,2.7C15.7,4.2,15.1,5.5,14.5,5.5L1.2,5.5C.5,5.5,0,4.2,0,2.7C0,1.2,.5,0,1.2,0z" stroke-width="0.333333"/><path fill="#ffffff" transform="translate(31.8,51.55)" id="shape77" stroke="#ffffff" d="M1.2,0L14.5,0C15.1,0,15.7,1.2,15.7,2.7C15.7,4.2,15.1,5.5,14.5,5.5L1.2,5.5C.5,5.5,0,4.2,0,2.7C0,1.2,.5,0,1.2,0z" stroke-width="0.333333"/><path fill="#ffffff" transform="translate(9.5,62.97)" id="shape78" stroke="#ffffff" d="M1.2,0L14.5,0C15.1,0,15.7,1.2,15.7,2.7C15.7,4.2,15.1,5.5,14.5,5.5L1.2,5.5C.5,5.5,0,4.2,0,2.7C0,1.2,.5,0,1.2,0z" stroke-width="0.333333"/><path fill="#ffffff" transform="translate(31.8,62.97)" id="shape79" stroke="#ffffff" d="M1.2,0L14.5,0C15.1,0,15.7,1.2,15.7,2.7C15.7,4.2,15.1,5.5,14.5,5.5L1.2,5.5C.5,5.5,0,4.2,0,2.7C0,1.2,.5,0,1.2,0z" stroke-width="0.333333"/></g><g transform="translate(0,103.02)" id="shape80"><text class="st1"><tspan y="5.9" x="7.3">App / Load Balancer </tspan><tspan y="17.9" x="36.3">Server</tspan></text></g></g><g transform="translate(914.34,502.63)"><g transform="translate(20.77,0)"><path fill="#00a2ff" id="shape81" stroke="#00a2ff" d="M6.8,0L50.1,0C53.9,0,57,3,57,6.6L57,90.7C57,94.4,53.9,97.3,50.1,97.3L6.8,97.3C3.1,97.3,0,94.4,0,90.7L0,6.6C0,3,3.1,0,6.8,0z"/><path fill="#ffffff" transform="translate(9.5,10.99)" id="shape82" stroke="#ffffff" d="M2.8,0L35.1,0C36.7,0,38,1.2,38,2.7C38,4.2,36.7,5.5,35.1,5.5L2.8,5.5C1.3,5.5,0,4.2,0,2.7C0,1.2,1.3,0,2.8,0z" stroke-width="0.333333"/><path fill="#ffffff" transform="translate(9.5,25.33)" id="shape83" stroke="#ffffff" d="M2.8,0L35.1,0C36.7,0,38,1.2,38,2.7C38,4.2,36.7,5.5,35.1,5.5L2.8,5.5C1.3,5.5,0,4.2,0,2.7C0,1.2,1.3,0,2.8,0z" stroke-width="0.333333"/><path fill="#ffffff" transform="translate(9.5,39.66)" id="shape84" stroke="#ffffff" d="M2.8,0L35.1,0C36.7,0,38,1.2,38,2.7C38,4.2,36.7,5.5,35.1,5.5L2.8,5.5C1.3,5.5,0,4.2,0,2.7C0,1.2,1.3,0,2.8,0z" stroke-width="0.333333"/><path fill="#ffffff" transform="translate(22.08,78.27)" id="shape85" stroke="#ffffff" d="M6.4,6.2C5.9,6.2,5.5,5.8,5.5,5.3L5.5,.9C5.5,.4,5.9,0,6.4,0C6.9,0,7.3,.4,7.3,.9L7.3,5.3C7.3,5.8,6.9,6.2,6.4,6.2zM9.9,1C9.8,.9,9.6,.9,9.4,.9C8.9,.9,8.5,1.3,8.5,1.8C8.5,1.9,8.6,2.1,8.7,2.2C8.7,2.3,8.8,2.4,8.9,2.5C8.9,2.5,8.9,2.5,9,2.5C9.2,2.7,9.4,2.9,9.6,3.1C10.5,3.9,11,5,11,6.2C11,7.4,10.5,8.5,9.6,9.3C8.8,10.2,7.6,10.6,6.4,10.6C5.2,10.6,4,10.2,3.2,9.3C2.3,8.5,1.8,7.4,1.8,6.2C1.8,5,2.3,3.9,3.2,3.1C3.4,2.9,3.6,2.7,3.8,2.5C3.9,2.5,3.9,2.5,3.9,2.5C4,2.4,4.1,2.3,4.2,2.2C4.2,2.1,4.3,1.9,4.3,1.8C4.3,1.3,3.9,.9,3.4,.9C3.2,.9,3,.9,2.9,1C1.1,2.1,0,4,0,6.2C0,9.6,2.9,12.4,6.4,12.4C9.9,12.4,12.8,9.6,12.8,6.2C12.8,4,11.7,2.1,9.9,1z" stroke-width="0.333333"/><path fill="#ffffff" transform="translate(9.5,51.55)" id="shape86" stroke="#ffffff" d="M1.2,0L14.5,0C15.1,0,15.7,1.2,15.7,2.7C15.7,4.2,15.1,5.5,14.5,5.5L1.2,5.5C.5,5.5,0,4.2,0,2.7C0,1.2,.5,0,1.2,0z" stroke-width="0.333333"/><path fill="#ffffff" transform="translate(31.8,51.55)" id="shape87" stroke="#ffffff" d="M1.2,0L14.5,0C15.1,0,15.7,1.2,15.7,2.7C15.7,4.2,15.1,5.5,14.5,5.5L1.2,5.5C.5,5.5,0,4.2,0,2.7C0,1.2,.5,0,1.2,0z" stroke-width="0.333333"/><path fill="#ffffff" transform="translate(9.5,62.97)" id="shape88" stroke="#ffffff" d="M1.2,0L14.5,0C15.1,0,15.7,1.2,15.7,2.7C15.7,4.2,15.1,5.5,14.5,5.5L1.2,5.5C.5,5.5,0,4.2,0,2.7C0,1.2,.5,0,1.2,0z" stroke-width="0.333333"/><path fill="#ffffff" transform="translate(31.8,62.97)" id="shape89" stroke="#ffffff" d="M1.2,0L14.5,0C15.1,0,15.7,1.2,15.7,2.7C15.7,4.2,15.1,5.5,14.5,5.5L1.2,5.5C.5,5.5,0,4.2,0,2.7C0,1.2,.5,0,1.2,0z" stroke-width="0.333333"/></g><g transform="translate(0,103.02)" id="shape90"><text class="st1"><tspan y="5.9" x="7.3">App / Load Balancer </tspan><tspan y="17.9" x="36.3">Server</tspan></text></g></g><g transform="translate(252.06,104.81)" id="shape91"><path fill="none" stroke="#4c777d" d="M0,0L61.5,0C65.4,0,68.5,3.1,68.5,7L68.5,279C68.5,282.9,71.7,286,75.5,286L183.3,286"/><path stroke-linecap="round" fill="#4c777d" stroke="#4c777d" d="M183.3,283L189.3,286L183.3,289L183.3,283" stroke-width="1"/></g><g transform="translate(251.51,192.63)" id="shape92"><path fill="none" stroke="#4c777d" d="M0,0L62,0C65.9,0,69,3.1,69,7L69,191.2C69,195.1,72.1,198.2,76,198.2L183.9,198.2"/><path stroke-linecap="round" fill="#4c777d" stroke="#4c777d" d="M183.9,195.2L189.9,198.2L183.9,201.2L183.9,195.2" stroke-width="1"/></g><g transform="translate(287.03,253.16)" id="shape93"><path fill="none" stroke="#4c777d" d="M0,0L27,0C30.8,0,34,3.1,34,7L34,130.7C34,134.5,37.1,137.7,41,137.7L148.4,137.7"/><path stroke-linecap="round" fill="#4c777d" stroke="#4c777d" d="M148.4,134.7L154.4,137.7L148.4,140.7L148.4,134.7" stroke-width="1"/></g><g transform="translate(287.03,343.36)" id="shape94"><path fill="none" stroke="#4c777d" d="M0,0L27,0C30.8,0,34,3.1,34,7L34,40.5C34,44.3,37.1,47.5,41,47.5L148.4,47.5"/><path stroke-linecap="round" fill="#4c777d" stroke="#4c777d" d="M148.4,44.5L154.4,47.5L148.4,50.5L148.4,44.5" stroke-width="1"/></g><g transform="translate(287.59,432.37)" id="shape95"><path fill="none" stroke="#4c777d" d="M0,0L26.4,0C30.3,0,33.4,-3.1,33.4,-7L33.4,-34.5C33.4,-38.4,36.5,-41.5,40.4,-41.5L147.8,-41.5"/><path stroke-linecap="round" fill="#4c777d" stroke="#4c777d" d="M147.8,-44.5L153.8,-41.5L147.8,-38.5L147.8,-44.5" stroke-width="1"/></g><g transform="translate(287.03,520.19)" id="shape96"><path fill="none" stroke="#4c777d" d="M0,0L27,0C30.8,0,34,-3.1,34,-7L34,-122.4C34,-126.2,37.1,-129.4,41,-129.4L148.4,-129.4"/><path stroke-linecap="round" fill="#4c777d" stroke="#4c777d" d="M148.4,-132.4L154.4,-129.4L148.4,-126.4L148.4,-132.4" stroke-width="1"/></g><g transform="translate(252.62,580.72)" id="shape97"><path fill="none" stroke="#4c777d" d="M0,0L61.1,0C64.9,0,68.1,-3.1,68.1,-7L68.1,-182.9C68.1,-186.8,71.2,-189.9,75.1,-189.9L182.8,-189.9"/><path stroke-linecap="round" fill="#4c777d" stroke="#4c777d" d="M182.8,-192.9L188.8,-189.9L182.8,-186.9L182.8,-192.9" stroke-width="1"/></g><g transform="translate(252.62,670.92)" id="shape98"><path fill="none" stroke="#4c777d" d="M0,0L61.1,0C64.9,0,68.1,-3.1,68.1,-7L68.1,-273.1C68.1,-277,71.2,-280.1,75.1,-280.1L182.8,-280.1"/><path stroke-linecap="round" fill="#4c777d" stroke="#4c777d" d="M182.8,-283.1L188.8,-280.1L182.8,-277.1L182.8,-283.1" stroke-width="1"/></g><g transform="translate(252.62,580.72)" id="shape99"><path fill="none" stroke="#4c777d" d="M0,0L61.1,0C64.9,0,68.1,-3.1,68.1,-7L68.1,-182.9C68.1,-186.8,71.2,-189.9,75.1,-189.9L182.8,-189.9"/><path stroke-linecap="round" fill="#4c777d" stroke="#4c777d" d="M182.8,-192.9L188.8,-189.9L182.8,-186.9L182.8,-192.9" stroke-width="1"/></g><g transform="translate(474.63,390.83)" id="shape100"><path fill="none" stroke="#4c777d" d="M0,0L99.9,-263.8"/><path stroke-linecap="round" fill="#4c777d" stroke="#4c777d" d="M97.1,-264.9L102.1,-269.4L102.7,-262.7L97.1,-264.9" stroke-width="1"/></g><g transform="translate(474.63,390.83)" id="shape101"><path fill="none" stroke="#4c777d" d="M0,0L99.1,-174"/><path stroke-linecap="round" fill="#4c777d" stroke="#4c777d" d="M96.5,-175.5L102.1,-179.2L101.7,-172.5L96.5,-175.5" stroke-width="1"/></g><g transform="translate(474.63,390.83)" id="shape102"><path fill="none" stroke="#4c777d" d="M0,0L97.5,-85.1"/><path stroke-linecap="round" fill="#4c777d" stroke="#4c777d" d="M95.6,-87.3L102.1,-89L99.5,-82.8L95.6,-87.3" stroke-width="1"/></g><path fill="none" transform="translate(474.63,390.83)" id="shape103" stroke="#4c777d" d="M0,0"/><g transform="translate(474.63,390.83)" id="shape104"><path fill="none" stroke="#4c777d" d="M0,0L96.1,-0"/><path stroke-linecap="round" fill="#4c777d" stroke="#4c777d" d="M96.1,-3L102.1,-0L96.1,3L96.1,-3" stroke-width="1"/></g><g transform="translate(474.63,390.83)" id="shape105"><path fill="none" stroke="#4c777d" d="M0,0L97.6,86.2"/><path stroke-linecap="round" fill="#4c777d" stroke="#4c777d" d="M99.6,84L102.1,90.2L95.6,88.5L99.6,84" stroke-width="1"/></g><g transform="translate(474.63,390.83)" id="shape106"><path fill="none" stroke="#4c777d" d="M0,0L99.1,175.2"/><path stroke-linecap="round" fill="#4c777d" stroke="#4c777d" d="M101.7,173.7L102.1,180.4L96.5,176.7L101.7,173.7" stroke-width="1"/></g><g transform="translate(474.63,390.83)" id="shape107"><path fill="none" stroke="#4c777d" d="M0,0L99.9,263.8"/><path stroke-linecap="round" fill="#4c777d" stroke="#4c777d" d="M102.7,262.7L102.1,269.4L97.1,264.9L102.7,262.7" stroke-width="1"/></g><g transform="translate(609.93,121.42)" id="shape108"><path fill="none" stroke="#4c777d" d="M0,0L117.5,277.8"/><path stroke-linecap="round" fill="#4c777d" stroke="#4c777d" d="M120.3,276.7L119.9,283.4L114.8,279L120.3,276.7" stroke-width="1"/></g><g transform="translate(609.93,211.62)" id="shape109"><path fill="none" stroke="#4c777d" d="M0,0L116.7,188.1"/><path stroke-linecap="round" fill="#4c777d" stroke="#4c777d" d="M119.3,186.5L119.9,193.2L114.2,189.6L119.3,186.5" stroke-width="1"/></g><g transform="translate(609.93,301.82)" id="shape110"><path fill="none" stroke="#4c777d" d="M0,0L115.3,99"/><path stroke-linecap="round" fill="#4c777d" stroke="#4c777d" d="M117.3,96.8L119.9,103L113.4,101.3L117.3,96.8" stroke-width="1"/></g><g transform="translate(609.93,481.03)" id="shape111"><path fill="none" stroke="#4c777d" d="M0,0L114.8,-73"/><path stroke-linecap="round" fill="#4c777d" stroke="#4c777d" d="M113.2,-75.6L119.9,-76.3L116.4,-70.5L113.2,-75.6" stroke-width="1"/></g><g transform="translate(609.93,571.22)" id="shape112"><path fill="none" stroke="#4c777d" d="M0,0L116.4,-161.6"/><path stroke-linecap="round" fill="#4c777d" stroke="#4c777d" d="M113.9,-163.3L119.9,-166.5L118.8,-159.8L113.9,-163.3" stroke-width="1"/></g><g transform="translate(609.93,660.23)" id="shape113"><path fill="none" stroke="#4c777d" d="M0,0L117.3,-250"/><path stroke-linecap="round" fill="#4c777d" stroke="#4c777d" d="M114.6,-251.3L119.9,-255.5L120,-248.8L114.6,-251.3" stroke-width="1"/></g><g transform="translate(609.93,390.83)" id="shape114"><path fill="none" stroke="#4c777d" d="M0,0L113.9,13.3"/><path stroke-linecap="round" fill="#4c777d" stroke="#4c777d" d="M114.3,10.3L119.9,13.9L113.6,16.2L114.3,10.3" stroke-width="1"/></g><g transform="translate(815.24,404.77)" id="shape115"><path fill="none" stroke="#4c777d" d="M0,0L116.6,-177.5"/><path stroke-linecap="round" fill="#4c777d" stroke="#4c777d" d="M114.1,-179.1L119.9,-182.5L119.1,-175.8L114.1,-179.1" stroke-width="1"/></g><g transform="translate(815.24,404.77)" id="shape116"><path fill="none" stroke="#4c777d" d="M0,0L93.1,-1.8"/><path stroke-linecap="round" fill="#4c777d" stroke="#4c777d" d="M93,-4.8L99.1,-2L93.2,1.2L93,-4.8" stroke-width="1"/></g><g transform="translate(815.24,404.77)" id="shape117"><path fill="none" stroke="#4c777d" d="M0,0L95.9,153.2"/><path stroke-linecap="round" fill="#4c777d" stroke="#4c777d" d="M98.5,151.6L99.1,158.3L93.4,154.8L98.5,151.6" stroke-width="1"/></g></g></svg>